<svg class="active" width="67" height="66" viewBox="0 0 67 66" fill="none" xmlns="http://www.w3.org/2000/svg">
<g clip-path="url(#clip0_6_808)">
<path d="M31.4062 0C32.8061 0 34.1939 0 35.5938 0C35.7612 0.0353571 35.9287 0.0825 36.0962 0.106071C37.8191 0.365357 39.5539 0.530357 41.2529 0.9075C54.1504 3.81857 64.308 14.4493 66.4975 27.3075C66.7009 28.5096 66.8325 29.7236 67 30.9375V35.0625C66.9641 35.2275 66.9162 35.3925 66.8923 35.5575C66.665 37.0896 66.5214 38.6336 66.1984 40.1421C63.5064 52.9414 52.4036 63.4071 39.3266 65.4932C38.0823 65.6936 36.8261 65.835 35.5818 66H31.3943C31.2507 65.9646 31.1071 65.9175 30.9516 65.8939C29.4202 65.67 27.8768 65.5286 26.3693 65.2339C13.4 62.6764 2.63214 51.6686 0.526429 38.8221C0.323036 37.5729 0.1675 36.3118 0 35.0625C0 33.6836 0 32.3164 0 30.9375C0.215357 29.4761 0.370893 28.0029 0.646071 26.5532C3.13464 13.4121 14.2854 2.67536 27.6614 0.506786C28.9057 0.306429 30.162 0.165 31.4062 0ZM13.388 54.2614C15.3861 47.9914 19.4061 43.5718 25.5198 40.8729C23.0432 39.2111 21.2127 37.1014 20.0761 34.4379C18.9155 31.7507 18.6404 28.9693 19.1907 26.1054C19.7411 23.265 21.0691 20.8136 23.127 18.7629C28.7262 13.1764 37.867 13.0468 43.5739 18.5036C46.4214 21.2261 47.9648 24.5614 48.0366 28.4861C48.1323 33.7425 45.8112 37.8086 41.5041 40.8846C47.6059 43.5718 51.6259 48.015 53.612 54.2614C61.4605 47.2725 65.6002 35.1921 61.3648 23.2179C57.297 11.7032 45.7634 3.72429 33.2248 3.86571C20.4111 4.00714 9.23643 12.1039 5.30018 24.2196C1.54339 35.7932 5.73089 47.4964 13.388 54.2496V54.2614ZM32.6625 62.1343C39.2189 62.1343 44.7943 60.4843 49.58 57.4554C50.1064 57.1136 50.1782 56.7954 50.0466 56.2532C48.0964 48.0268 40.6427 42.6525 32.0762 43.2889C24.6823 43.8429 18.3891 49.2879 16.8936 56.4064C16.7979 56.8779 16.9055 57.1371 17.3243 57.3964C22.2536 60.5314 27.6495 62.0989 32.6625 62.1343ZM33.488 18.3621C27.6136 18.3621 22.8518 23.0646 22.8518 28.8632C22.8518 34.6618 27.6136 39.3407 33.5 39.3407C39.3864 39.3407 44.1362 34.65 44.1362 28.8514C44.1362 23.0529 39.3625 18.3621 33.488 18.3621Z" fill="#595959"/>
</g>
<defs>
<clipPath id="clip0_6_808">
<rect width="67" height="66" fill="white"/>
</clipPath>
</defs>
</svg>
