<svg width="63" height="56" viewBox="0 0 63 56" fill="none" xmlns="http://www.w3.org/2000/svg">
<g clip-path="url(#clip0_26_1722)">
<path d="M62.9901 9.72C62.5401 11.2 62.0801 12.68 61.6501 14.17C59.6401 21.19 57.6301 28.22 55.6201 35.24C55.2601 36.49 54.7101 36.91 53.4001 36.91C43.0901 36.91 32.7701 36.91 22.4601 36.89C21.7801 36.89 21.4101 37.06 21.1301 37.71C20.4301 39.29 21.2201 40.6 22.9501 40.6C33.0601 40.6 43.1701 40.6 53.2701 40.6C54.7401 40.6 55.6001 41.29 55.5901 42.46C55.5901 43.63 54.7301 44.29 53.2401 44.3C51.2801 44.3 49.3101 44.3 47.2101 44.3C50.5501 45.36 52.3001 47.79 51.8401 50.58C51.3701 53.44 49.0701 55.41 46.2501 55.37C43.4901 55.33 41.1801 53.23 40.8501 50.43C40.5901 48.23 41.7601 45.23 45.5001 44.34H28.7301C31.8901 45.26 33.6901 47.7 33.3101 50.47C32.9101 53.32 30.6101 55.37 27.8101 55.37C25.0101 55.37 22.7001 53.32 22.3001 50.48C21.9101 47.7 23.6901 45.29 26.8101 44.3C25.4501 44.3 24.0901 44.3 22.7301 44.3C20.0501 44.28 17.8801 42.53 17.2901 39.92C16.9901 38.56 17.1701 37.25 17.8801 36.06C18.3601 35.26 18.3701 34.53 18.1101 33.64C15.2801 23.85 12.5001 14.04 9.70009 4.24C9.66009 4.08 9.60009 3.93 9.52009 3.69C9.33009 3.69 9.11009 3.69 8.89009 3.69C6.61009 3.69 4.34009 3.69 2.06009 3.69C0.830088 3.69 -0.00991167 2.93 8.83292e-05 1.83C0.0100883 0.76 0.840088 0 2.04009 0C4.93009 0 7.82009 0 10.7101 0C11.8301 0 12.4501 0.47 12.7701 1.56C13.3201 3.48 13.8701 5.41 14.4301 7.38H15.2401C30.3501 7.38 45.4601 7.38 60.5701 7.36C61.7001 7.36 62.5101 7.69 62.9901 8.73V9.71V9.72ZM58.6901 11.11H15.5001C17.6101 18.51 19.7101 25.86 21.8101 33.19H52.3801C54.4801 25.83 56.5801 18.5 58.6901 11.11ZM29.6501 49.88C29.6801 48.89 28.8701 48.02 27.8701 47.99C26.8801 47.95 26.0101 48.76 25.9601 49.75C25.9101 50.77 26.7501 51.66 27.7701 51.68C28.7601 51.7 29.6201 50.88 29.6501 49.89V49.88ZM46.3701 51.67C47.3701 51.67 48.2101 50.85 48.2301 49.86C48.2501 48.87 47.4301 48.01 46.4301 47.99C45.4101 47.96 44.5401 48.82 44.5401 49.83C44.5401 50.83 45.3801 51.66 46.3701 51.67Z" fill="#595959"/>
</g>
<defs>
<clipPath id="clip0_26_1722">
<rect width="62.99" height="55.37" fill="white"/>
</clipPath>
</defs>
</svg>
