<svg width="39" height="29" viewBox="0 0 39 29" fill="none" xmlns="http://www.w3.org/2000/svg">
<path d="M0 14.2701C0.23 13.7001 0.66 13.5201 1.25 13.5201C9.74 13.5201 18.23 13.5201 26.71 13.5301C26.99 13.5301 27.14 13.4901 27.25 13.1801C27.79 11.6401 29.23 10.6501 30.86 10.6401C32.49 10.6401 33.92 11.6301 34.49 13.1601C34.53 13.2801 34.58 13.3901 34.62 13.5201C35.48 13.5201 36.34 13.5201 37.19 13.5201C37.33 13.5201 37.47 13.5201 37.6 13.5201C38.17 13.5501 38.57 13.9401 38.58 14.4701C38.59 15.0101 38.19 15.4401 37.6 15.4501C36.76 15.4701 35.92 15.4801 35.08 15.4501C34.72 15.4401 34.57 15.5501 34.44 15.8901C33.87 17.4001 32.44 18.3601 30.82 18.3401C29.23 18.3301 27.81 17.3401 27.27 15.8401C27.16 15.5401 27.02 15.4501 26.71 15.4501C18.22 15.4501 9.73 15.4501 1.25 15.4601C0.66 15.4601 0.23 15.2801 0 14.7101V14.2601L0 14.2701ZM32.79 14.5101C32.79 13.4301 31.93 12.5601 30.86 12.5701C29.81 12.5701 28.94 13.4401 28.94 14.4901C28.94 15.5601 29.81 16.4401 30.87 16.4301C31.92 16.4301 32.78 15.5701 32.79 14.5101Z" fill="#989898"/>
<path d="M0 23.92C0.23 23.35 0.66 23.17 1.25 23.17C5.88 23.18 10.52 23.17 15.15 23.18C15.44 23.18 15.58 23.11 15.68 22.82C16.22 21.3 17.65 20.3 19.26 20.29C20.89 20.29 22.34 21.26 22.89 22.79C23.01 23.12 23.16 23.18 23.48 23.18C28.09 23.17 32.7 23.18 37.3 23.18C38.13 23.18 38.59 23.54 38.58 24.17C38.57 24.79 38.12 25.12 37.3 25.12C32.69 25.12 28.08 25.12 23.48 25.12C23.16 25.12 23.01 25.18 22.89 25.51C22.34 27.04 20.89 28.02 19.26 28.01C17.65 28.01 16.22 27.01 15.68 25.48C15.57 25.18 15.44 25.12 15.15 25.12C10.52 25.12 5.88 25.12 1.25 25.13C0.66 25.13 0.23 24.95 0 24.38V23.93L0 23.92ZM19.29 22.22C18.24 22.22 17.38 23.08 17.37 24.14C17.36 25.2 18.24 26.09 19.31 26.08C20.36 26.08 21.22 25.22 21.23 24.16C21.23 23.1 20.36 22.21 19.29 22.22Z" fill="#989898"/>
<path d="M0 4.63014C0.23 4.06014 0.66 3.86014 1.25 3.88014C2.13 3.90014 3.01 3.88014 3.89 3.88014C3.91 3.88014 3.94 3.87014 3.92 3.88014C4.13 3.47014 4.29 3.05014 4.54 2.70014C5.42 1.43014 6.66 0.850138 8.18 1.03014C9.72 1.21014 10.78 2.09014 11.33 3.54014C11.43 3.81014 11.56 3.89014 11.84 3.89014C20.32 3.89014 28.79 3.89014 37.27 3.89014C37.48 3.89014 37.7 3.89014 37.9 3.95014C38.32 4.06014 38.59 4.45014 38.58 4.88014C38.58 5.30014 38.31 5.66014 37.9 5.77014C37.7 5.82014 37.48 5.83014 37.27 5.83014C28.82 5.83014 20.37 5.83014 11.92 5.83014C11.58 5.83014 11.43 5.91014 11.31 6.25014C10.76 7.75014 9.33 8.72014 7.74 8.72014C6.12 8.72014 4.7 7.74014 4.12 6.24014C4.07 6.11014 4.02 5.98014 3.97 5.84014C3.06 5.84014 2.16 5.82014 1.26 5.84014C0.67 5.86014 0.23 5.66014 0.01 5.09014V4.64014L0 4.63014ZM5.8 4.86014C5.8 5.92014 6.65 6.77014 7.71 6.78014C8.77 6.78014 9.65 5.91014 9.65 4.84014C9.65 3.79014 8.79 2.93014 7.73 2.92014C6.67 2.92014 5.79 3.78014 5.8 4.86014Z" fill="#989898"/>
</svg>
